<svg xmlns="http://www.w3.org/2000/svg" xmlns:xlink="http://www.w3.org/1999/xlink" width="1080" zoomAndPan="magnify" viewBox="0 0 810 809.999993" height="1080" preserveAspectRatio="xMidYMid meet" version="1.0"><defs><g/></defs><g fill="#e7faec" fill-opacity="1"><g transform="translate(109.223444, 512.007721)"><g><path d="M 155.320312 -119.335938 C 210.765625 0 62.789062 14.320312 62.789062 -87.757812 L 1.46875 -87.757812 C 1.46875 -27.539062 45.53125 0 89.960938 0 C 135.859375 0 182.125 -28.640625 182.125 -81.148438 L 182.125 -275.390625 L 120.804688 -275.390625 L 120.804688 -214.070312 C 120.804688 -178.820312 140.265625 -152.015625 155.320312 -119.335938 Z M 155.320312 -119.335938 "/></g></g></g><g fill="#e7faec" fill-opacity="1"><g transform="translate(306.767933, 512.007721)"><g><path d="M 319.453125 0 L 383.710938 0 L 292.648438 -275.390625 L 228.390625 -275.390625 L 197.179688 -181.023438 L 165.96875 -275.390625 L 101.34375 -275.390625 L 10.28125 0 L 74.539062 0 L 95.101562 -60.953125 C 111.992188 -112.726562 70.5 -157.523438 95.835938 -233.53125 L 105.382812 -262.90625 L 192.40625 0 L 257.03125 0 L 201.21875 -168.171875 L 232.429688 -262.90625 Z M 319.453125 0 "/></g></g></g></svg>